# xmcd
#
# Track frame offsets: 
#        150
#        12353
#        23534
#        39393
#        50861
#        62824
#        79576
#        95299
#        108476
#        117603
#
# Disc length: 1698 seconds
#
# Revision: 0
# Processed by: cddbd v1.5.2PL0 Copyright (c) Steve Scherf et al.
# Submitted via: ExactAudioCopy v1.0b1
#
DISCID=7c06a00a
DTITLE=Johnny Cash and June Carter Cash - Johnny Cash And His Woman
DYEAR=1973
DGENRE=Country
TTITLE0=The Color Of Love
TTITLE1=Saturday Night In Hickman County
TTITLE2=Allegheny
TTITLE3=Life has It's Little Ups And Downs
TTITLE4=Matthew 24 (Is Knocking At The Door)
TTITLE5=The CIty Of New Orleans
TTITLE6=Tony
TTITLE7=The Pine Tree
TTITLE8=We're For Love
TTITLE9=Godshine
EXTD=
EXTT0=
EXTT1=
EXTT2=
EXTT3=
EXTT4=
EXTT5=
EXTT6=
EXTT7=
EXTT8=
EXTT9=
PLAYORDER=
